# xmcd
#
# Track frame offsets: 
#        150
#        30923
#        65840
#        91620
#        125165
#
# Disc length: 2114 seconds
#
# Revision: 0
# Processed by: cddbd v1.5.2PL0 Copyright (c) Steve Scherf et al.
# Submitted via: ExactAudioCopy v0.95b4
#
DISCID=3a084005
DTITLE=APT - APT. UPCOMMING TRACKS 2007
DYEAR=2007
DGENRE=House
TTITLE0=PAX JAPONICA GROOVE - SHOU-RYU
TTITLE1=DAISHI DANCE feat. Lori Fine - LET LIFE LOOSE -DJ Tour Edit-
TTITLE2=STUDIO APARTMENT feat. Deborah Bond - Something Between Us
TTITLE3=NOMAD FOUNDATION - circulation
TTITLE4=TIGER STRIPES - What Was
EXTD=
EXTT0=
EXTT1=
EXTT2=
EXTT3=
EXTT4=
PLAYORDER=
